<svg id="Layer_1" data-name="Layer 1" xmlns="http://www.w3.org/2000/svg" viewBox="0 0 32 32"><defs><style>.cls-1{fill:#1769b1;}</style></defs><title>logo</title><path class="cls-1" d="M23.83,19.32l-.59.33.59-.33Z"/><path class="cls-1" d="M19.59,17.66h0c-.14.18-.3.35-.43.54C19.29,18,19.45,17.84,19.59,17.66Z"/><path class="cls-1" d="M24.37,12.44l-.67.72.36.2a.77.77,0,0,1,.26,1.2,1.48,1.48,0,0,1-.25.31A4.91,4.91,0,0,1,22.51,16a5.52,5.52,0,0,1-2.23.65c-.81,0-1.06-.37-.69-1.09.15-.29.33-.56.52-.89-.2,0-.42,0-.51.05a5,5,0,0,0-.85.93A1.11,1.11,0,0,0,18.94,17a1.77,1.77,0,0,0,1.5.48,6.11,6.11,0,0,0,3-1.06A4.29,4.29,0,0,0,25,14.87,1.82,1.82,0,0,0,24.37,12.44Z"/><path class="cls-1" d="M19,17.27a11.52,11.52,0,0,0-.8,1.17.89.89,0,0,0,.47,1.32,3.25,3.25,0,0,0,.6.2,5.93,5.93,0,0,0,2.3,0,6,6,0,0,0,2.8-1.15,1.91,1.91,0,0,0,.8-1.49,9.32,9.32,0,0,0-.1-1.4,2.62,2.62,0,0,0-.22-.6c-.18.22-.33.37-.45.54a.46.46,0,0,0-.06.32,1.78,1.78,0,0,1-.72,2.19,6,6,0,0,1-2.4.95,3.66,3.66,0,0,1-1.71,0c-.58-.17-.73-.53-.4-1l.05-.09c.13-.19.29-.36.43-.54l-.51-.33Z"/><path class="cls-1" d="M19.08,17.33l.51.33h0Z"/><path class="cls-1" d="M22.49,21.63A3.59,3.59,0,0,0,24,20.82a.94.94,0,0,0,.22-.28.89.89,0,0,0-.36-1.22l-.59.33.16.12c.32.25.35.52,0,.8a1.92,1.92,0,0,1-.5.34,4.82,4.82,0,0,1-2,.53,5.06,5.06,0,0,1-1.29-.07c-.44-.08-.54-.41-.3-.78.09-.14.21-.26.34-.43-.18,0-.37-.1-.49,0a1.07,1.07,0,0,0-.62.75.64.64,0,0,0,.27.72,2.16,2.16,0,0,0,.8.33A5.56,5.56,0,0,0,22.49,21.63Z"/><path class="cls-1" d="M24.19,20.54a.89.89,0,0,0-.36-1.22h0A.89.89,0,0,1,24.19,20.54Z"/><path class="cls-1" d="M23.89,9.79a6.84,6.84,0,0,0-1.75,0A23.76,23.76,0,0,0,17.84,11c-.6.21-1.2.44-1.8.63-.45.14-.68,0-.75-.48,0-.07,0-.14,0-.21,0-.55-.18-2.89-.24-3.43a3.47,3.47,0,0,0-3.19-3.16,2.63,2.63,0,0,0-.84,0,1.25,1.25,0,0,0-.89,1.81c1.38,3.06,2.33,6.16,2.15,8.21-.08,1-1.63,9.83.24,12.38,1.24,1.68,5.23,1.55,2.93-3.59-1.26-2.83-1.12-5.94-1.24-7.12-.28-2.73-2-6.69-2.93-8.88-.2-.46-.4-.79-.54-1.21a.61.61,0,0,1,.53-.85,2.46,2.46,0,0,1,2.83,1.67c.18.64.35,3.1.43,3.77.05.49.05,1,.14,1.45a.61.61,0,0,0,.75.52,1.64,1.64,0,0,0,.44-.09l1.25-.52a21.71,21.71,0,0,1,4.83-1.59,5.05,5.05,0,0,1,1.4,0,.7.7,0,0,1,.64,1,2,2,0,0,1-.28.66,4.71,4.71,0,0,1-2.32,1.7,2,2,0,0,1-1.51-.06.63.63,0,0,1-.37-.91,2.59,2.59,0,0,1,.26-.46A3.68,3.68,0,0,1,22,10.81l.65-.18v-.07a2.41,2.41,0,0,0-.38,0,5.4,5.4,0,0,0-2.54,1.09,4,4,0,0,0-.94,1A1.11,1.11,0,0,0,19,14.18a1.79,1.79,0,0,0,1.41.36,5.81,5.81,0,0,0,3.49-1.76,3,3,0,0,0,.93-1.52A1.09,1.09,0,0,0,23.89,9.79Z"/><path class="cls-1" d="M29.93,14c-.64-2-2.53-3.45-5.11-4.15a6.25,6.25,0,0,1,3.56,3.69c1.4,4.47-3.68,10.08-11.46,12.85a21.55,21.55,0,0,0,2.49-.62C26.55,23.56,31.26,18.3,29.93,14Z"/><path class="cls-1" d="M6,18.23A.68.68,0,0,1,5.5,18a.7.7,0,0,1,0-1,.68.68,0,0,1,.49-.2,2,2,0,0,0,1.46-.61,2.05,2.05,0,0,0,0-2.92A2,2,0,0,0,6,12.71a2.07,2.07,0,0,0-2.07,2.07.67.67,0,0,1-.21.49.66.66,0,0,1-.48.2.68.68,0,0,1-.49-.2.66.66,0,0,1-.2-.49,3.28,3.28,0,0,1,1-2.44,3.28,3.28,0,0,1,2.44-1,3.31,3.31,0,0,1,2.44,1,3.32,3.32,0,0,1,1,2.44,3.57,3.57,0,0,1-1.27,2.68,5.19,5.19,0,0,1,.75.6,4.14,4.14,0,0,1,0,5.86A4,4,0,0,1,6,25.13a4,4,0,0,1-2.93-1.21A4,4,0,0,1,1.85,21a.66.66,0,0,1,.2-.49.68.68,0,0,1,.49-.2.66.66,0,0,1,.48.2.67.67,0,0,1,.21.49,2.65,2.65,0,0,0,.8,2,2.66,2.66,0,0,0,2,.81,2.66,2.66,0,0,0,2-.81,2.76,2.76,0,0,0,0-3.91A2.69,2.69,0,0,0,6,18.23Z"/></svg>